# xmcd
#
# Track frame offsets:
#	150
#	13190
#	27590
#	39417
#	52277
#	64016
#	79193
#	89609
#	106452
#	118314
#	129898
#	141690
#	154973
#	171343
#	187357
#	204503
#	219749
#
# Disc length: 3164
#
# Revision: 1
# Processed by: cddbd v1.5.1PL0 Copyright (c) Steve Scherf et al.
# Submitted via: audiograbber 1.80.04
# Normalized: r0:DSETVAR1
#
DISCID=110c5a11
DTITLE=Various Artist - ALL TIME CLASSIC COUNTRY TEARJERKERS
DYEAR=2003
DGENRE=Country
TTITLE0=DOLLY PARTON - I WILL ALWAYS LOVE YOU
TTITLE1=ROY ORBISON - CRAWLING BACK
TTITLE2=DON GIBSONN - I CAN'T STOP LOVING YOU
TTITLE3=FARON YOUNG - YOUR CHEATIN HEART
TTITLE4=MANDY BARNETT - FUNNY FAMILIAR FORGOTTEN FEELINGS
TTITLE5=JOHN CONLEE - ROSE COLOURED GLASSES
TTITLE6=JIM REEVES - HE'LL HAVE TO GO
TTITLE7=DOLLY PARTON,LINDA RONSTADT&EMYLOU HARRIS - TO KNOW HIM IS TO LOVE HIM
TTITLE8=FRANKIE LAINE - HIGH NOON
TTITLE9=JOHNNY CASH - I STILL MISS SOMEONE
TTITLE10=THE EVERLY BROTHERS - NASHVILLE BLUES
TTITLE11=RICKY SCAGGS - CRY CRY DARLIN'
TTITLE12=CARLENE CARTER - UNBREAKABLE HEART
TTITLE13=TRAVIS TRITT - CAN I TRUST YOU WITH MY HEART
TTITLE14=RODNEY CROWELL - SHE AIN'T GOING NOWHERE
TTITLE15=KRIS KRISTOFFERSON - FOR THE GOOD TIMES
TTITLE16=THE JUDDS - LOVE CAN BUILD A BRIDGE
EXTD=
EXTT0=
EXTT1=
EXTT2=
EXTT3=
EXTT4=
EXTT5=
EXTT6=
EXTT7=
EXTT8=
EXTT9=
EXTT10=
EXTT11=
EXTT12=
EXTT13=
EXTT14=
EXTT15=
EXTT16=
PLAYORDER=
